<?xml version="1.0" encoding="utf-8"?>
<!-- Generator: Adobe Illustrator 23.0.0, SVG Export Plug-In . SVG Version: 6.00 Build 0)  -->
<svg version="1.1" id="Layer_1" xmlns="http://www.w3.org/2000/svg" xmlns:xlink="http://www.w3.org/1999/xlink" x="0px" y="0px"
	 viewBox="0 0 227 125.2" style="enable-background:new 0 0 227 125.2;" xml:space="preserve">
<style type="text/css">
	.st0{fill:#727577;}
	.st1{fill:url(#SVGID_1_);}
	.st2{fill:url(#SVGID_2_);}
	.st3{fill:url(#SVGID_3_);}
</style>
<g>
	<path class="st0" d="M24.2,113.2c0,3.3-1.2,6.1-3.6,8.5c-2.4,2.3-5.2,3.5-8.5,3.5s-6.2-1.2-8.6-3.5S0,116.4,0,113v-12h6.3l0.1,12
		c0,1.6,0.6,3,1.7,4.1s2.5,1.7,4,1.7s2.8-0.5,3.8-1.5c1.1-1,1.7-2.2,1.9-3.6l0.1-12.6h6.3V113.2z"/>
	<path class="st0" d="M53.9,124.8h-6.4V113c0-1.6-0.6-3-1.7-4.1c-1.1-1.1-2.5-1.7-4.1-1.7c-1.5,0-2.8,0.5-3.9,1.5
		c-1.1,1-1.7,2.2-1.9,3.7l-0.1,12.5h-6.5v-12c0-3.4,1.3-6.2,3.7-8.6c2.4-2.4,5.3-3.5,8.6-3.5c3.4,0,6.3,1.2,8.7,3.6
		c2.4,2.4,3.6,5.3,3.6,8.7C53.9,113.1,53.9,124.8,53.9,124.8z"/>
	<path class="st0" d="M82.9,90.4v22.9c-0.1,3.3-1.4,6-3.7,8.3c-2.3,2.3-5.2,3.4-8.5,3.4s-6.2-1.2-8.6-3.6s-3.6-5.2-3.6-8.6
		c0-3.3,1.2-6.2,3.6-8.6c2.4-2.4,5.2-3.6,8.6-3.6c2,0,3.9,0.5,5.7,1.4V90.2h6.5V90.4z M76.5,112.9c0-1.6-0.6-2.9-1.7-4
		s-2.5-1.7-4.1-1.7s-2.9,0.6-4,1.7c-1.1,1.1-1.7,2.5-1.7,4c0,1.6,0.6,3,1.7,4.1s2.5,1.7,4,1.7c1.6,0,3-0.6,4.1-1.7
		C75.9,115.9,76.5,114.5,76.5,112.9z"/>
	<path class="st0" d="M111.3,115.4l-17.4,0.1c0.3,1.1,1.1,2,2.1,2.8c1.1,0.8,2.3,1.1,3.5,1.1c1.7,0,3.1-0.6,4.5-1.9
		c1.6,1.7,3,3,4.1,4.1c-2.4,2.3-5.2,3.5-8.5,3.5s-6.2-1.2-8.6-3.6s-3.6-5.2-3.6-8.6c0-3.4,1.2-6.2,3.6-8.6s5.2-3.6,8.6-3.6
		c4.7,0,8,2,10.1,5.9c1.1,2,1.6,4.3,1.6,6.9C111.3,114.1,111.3,114.7,111.3,115.4z M105.2,110.3c-1.1-2.3-3-3.5-5.7-3.5
		c-2.6,0-4.5,1.2-5.7,3.5H105.2z"/>
	<path class="st0" d="M129,107h-6v17.8h-6.5V99.1c0-2.7,0.9-4.9,2.8-6.6c1.5-1.4,3.2-2.2,5.1-2.2h4.5V97h-3.5
		c-1.4-0.1-2.2,0.4-2.4,1.5v1.8h6V107z"/>
	<path class="st0" d="M140.4,94.8c0,0.9-0.3,1.7-1,2.4c-0.7,0.7-1.4,1-2.4,1c-0.9,0-1.7-0.3-2.4-1s-1-1.4-1-2.4c0-0.9,0.3-1.7,1-2.4
		c0.7-0.7,1.4-1,2.4-1c0.9,0,1.7,0.3,2.4,1C140,93.1,140.4,93.9,140.4,94.8z M140.3,124.8h-6.5V101h6.5V124.8z"/>
	<path class="st0" d="M170.1,124.8h-6.4l-0.1-11.8c0-1.6-0.6-3-1.7-4.1c-1.1-1.1-2.5-1.7-4.1-1.7c-1.5,0-2.8,0.5-3.9,1.5
		c-1.1,1-1.7,2.2-1.9,3.7l-0.1,12.5h-6.5v-12c0-3.4,1.3-6.2,3.7-8.6c2.4-2.4,5.3-3.5,8.6-3.5c3.4,0,6.3,1.2,8.7,3.6
		c2.4,2.4,3.6,5.3,3.6,8.7L170.1,124.8L170.1,124.8z"/>
	<path class="st0" d="M198.5,115.4l-17.4,0.1c0.3,1.1,1.1,2,2.1,2.8c1.1,0.8,2.3,1.1,3.5,1.1c1.7,0,3.1-0.6,4.5-1.9
		c1.6,1.7,3,3,4.1,4.1c-2.4,2.3-5.2,3.5-8.5,3.5s-6.2-1.2-8.6-3.6s-3.6-5.2-3.6-8.6c0-3.4,1.2-6.2,3.6-8.6s5.2-3.6,8.6-3.6
		c4.7,0,8,2,10.1,5.9c1.1,2,1.6,4.3,1.6,6.9C198.5,114.1,198.5,114.7,198.5,115.4z M192.5,110.3c-1.1-2.3-3-3.5-5.7-3.5
		c-2.6,0-4.5,1.2-5.7,3.5H192.5z"/>
	<path class="st0" d="M227,90.4v22.9c-0.1,3.3-1.4,6-3.7,8.3s-5.2,3.4-8.5,3.4s-6.2-1.2-8.6-3.6s-3.6-5.2-3.6-8.6
		c0-3.3,1.2-6.2,3.6-8.6s5.2-3.6,8.6-3.6c2,0,3.9,0.5,5.7,1.4V90.2h6.5V90.4z M220.6,112.9c0-1.6-0.6-2.9-1.7-4
		c-1.1-1.1-2.5-1.7-4.1-1.7s-2.9,0.6-4,1.7c-1.1,1.1-1.7,2.5-1.7,4c0,1.6,0.6,3,1.7,4.1c1.1,1.1,2.5,1.7,4,1.7c1.6,0,3-0.6,4.1-1.7
		C220,115.9,220.6,114.5,220.6,112.9z"/>
</g>
<linearGradient id="SVGID_1_" gradientUnits="userSpaceOnUse" x1="122.5215" y1="86.8507" x2="165.9195" y2="55.5859" gradientTransform="matrix(1 0 0 -1 0 100.0414)">
	<stop  offset="0.1419" style="stop-color:#29A99F"/>
	<stop  offset="0.1614" style="stop-color:#29AEA2"/>
	<stop  offset="0.2951" style="stop-color:#2CCAB5"/>
	<stop  offset="0.4115" style="stop-color:#2DDCC0"/>
	<stop  offset="0.4968" style="stop-color:#2EE2C4"/>
	<stop  offset="0.5764" style="stop-color:#2EE9C4"/>
	<stop  offset="0.8156" style="stop-color:#2EF9C4"/>
	<stop  offset="0.9998" style="stop-color:#2EFFC4"/>
</linearGradient>
<path class="st1" d="M106.4,28.8c0.1-6.2,1.8-11.8,5-16.5c0,0,1.9-2.6,3-3.8c5.3-5.6,11.7-8.4,19.3-8.4c7.2,0,14.1,3,19.2,8.4
	c5.4,5.7,8.1,12.6,8.1,20.8v21.1c0,4.2-3.2,7.6-7.1,7.6l0,0c-4,0-7.1-3.4-7.1-7.6l-0.1-21.1c0-3.9-1.3-7.1-3.7-9.8
	c-2.4-2.6-5.8-4.1-9.2-4.1c-3.3,0-6.2,1.2-8.7,3.5c-2.4,2.3-3.8,5.3-4.2,8.7L106.4,28.8z"/>
<linearGradient id="SVGID_2_" gradientUnits="userSpaceOnUse" x1="75.0948" y1="69.8487" x2="114.1931" y2="32.3836" gradientTransform="matrix(1 0 0 -1 0 100.0414)">
	<stop  offset="1.860119e-04" style="stop-color:#2EFFC4"/>
	<stop  offset="0.1462" style="stop-color:#2EF9C4"/>
	<stop  offset="0.3358" style="stop-color:#2EE9C4"/>
	<stop  offset="0.3989" style="stop-color:#2EE2C4"/>
	<stop  offset="0.4939" style="stop-color:#2DDCC0"/>
	<stop  offset="0.6235" style="stop-color:#2CCAB5"/>
	<stop  offset="0.7724" style="stop-color:#29AEA2"/>
	<stop  offset="0.7941" style="stop-color:#29A99F"/>
</linearGradient>
<path class="st2" d="M120.7,41.4c-0.1,6.2-1.8,11.8-5,16.5l0,0c-0.9,1.3-1.9,2.6-3,3.8c-5.3,5.6-11.7,8.4-19.3,8.4
	c-7.2,0-14.1-3-19.2-8.4c-5.4-5.7-8.1-12.6-8.1-20.8V19.9c0-4.2,3.2-7.6,7.1-7.6l0,0c4,0,7.1,3.4,7.1,7.6L80.4,41
	c0,3.9,1.3,7.1,3.7,9.8c2.4,2.6,5.8,4.1,9.2,4.1c3.3,0,6.2-1.2,8.7-3.5c2.4-2.3,3.8-5.3,4.2-8.7L120.7,41.4z"/>
<linearGradient id="SVGID_3_" gradientUnits="userSpaceOnUse" x1="84.8306" y1="64.9175" x2="142.0874" y2="64.9175" gradientTransform="matrix(1 0 0 -1 0 100.0414)">
	<stop  offset="1.409557e-02" style="stop-color:#2EFFC4"/>
	<stop  offset="0.5073" style="stop-color:#2EE2C4"/>
	<stop  offset="0.5852" style="stop-color:#2EE9C4"/>
	<stop  offset="0.8194" style="stop-color:#2EF9C4"/>
	<stop  offset="0.9998" style="stop-color:#2EFFC4"/>
</linearGradient>
<path class="st3" d="M133.6,0.1c-7.5,0-14,2.8-19.3,8.4c-1.1,1.2-3,3.8-3,3.8c-3.3,4.8-5,10.3-5,16.5l-0.1,13.9l0,0
	c0.2,14.7-10.5,22.6-20.6,25.8c-0.3,0.1-0.6,0.2-0.7,0.2c2.6,0.9,5.5,1.4,8.5,1.4c7.5,0,14-2.8,19.3-8.4c1.1-1.2,2.1-2.5,3-3.8l0,0
	c3.3-4.8,5-10.3,5-16.5V27.5c-0.3-14.7,10.5-22.6,20.6-25.8c0.3-0.1,0.5-0.2,0.7-0.2C139.4,0.6,136.7,0.1,133.6,0.1z"/>
</svg>
