<?xml version="1.0" encoding="utf-8"?>
<!-- Generator: Adobe Illustrator 23.0.0, SVG Export Plug-In . SVG Version: 6.00 Build 0)  -->
<svg version="1.1" id="Layer_1" xmlns="http://www.w3.org/2000/svg" xmlns:xlink="http://www.w3.org/1999/xlink" x="0px" y="0px"
	 viewBox="0 0 227 152.1" style="enable-background:new 0 0 227 152.1;" xml:space="preserve">
<style type="text/css">
	.st0{fill:#727577;}
	.st1{fill:url(#SVGID_1_);}
	.st2{fill:url(#SVGID_2_);}
	.st3{fill:url(#SVGID_3_);}
</style>
<g>
	<path class="st0" d="M24.2,140.2c0,3.3-1.2,6.1-3.6,8.5c-2.4,2.3-5.2,3.5-8.5,3.5c-3.3,0-6.2-1.2-8.6-3.5S0,143.4,0,140v-12h6.3
		l0.1,12c0,1.6,0.6,3,1.7,4.1c1.1,1.1,2.5,1.7,4,1.7c1.5,0,2.8-0.5,3.8-1.5c1.1-1,1.7-2.2,1.9-3.6l0.1-12.6h6.3V140.2z"/>
	<path class="st0" d="M53.9,151.8h-6.4L47.5,140c0-1.6-0.6-3-1.7-4.1c-1.1-1.1-2.5-1.7-4.1-1.7c-1.5,0-2.8,0.5-3.9,1.5
		c-1.1,1-1.7,2.2-1.9,3.7l-0.1,12.5h-6.5v-12c0-3.4,1.3-6.2,3.7-8.6c2.4-2.4,5.3-3.5,8.6-3.5c3.4,0,6.3,1.2,8.7,3.6
		c2.4,2.4,3.6,5.3,3.6,8.7V151.8z"/>
	<path class="st0" d="M82.9,117.4v22.9c-0.1,3.3-1.4,6-3.7,8.3c-2.3,2.3-5.2,3.4-8.5,3.4c-3.3,0-6.2-1.2-8.6-3.6s-3.6-5.2-3.6-8.6
		c0-3.3,1.2-6.2,3.6-8.6s5.2-3.6,8.6-3.6c2,0,3.9,0.5,5.7,1.4v-11.8H82.9z M76.5,139.9c0-1.6-0.6-2.9-1.7-4
		c-1.1-1.1-2.5-1.7-4.1-1.7c-1.6,0-2.9,0.6-4,1.7c-1.1,1.1-1.7,2.5-1.7,4c0,1.6,0.6,3,1.7,4.1c1.1,1.1,2.5,1.7,4,1.7
		c1.6,0,3-0.6,4.1-1.7C75.9,142.9,76.5,141.5,76.5,139.9z"/>
	<path class="st0" d="M111.3,142.4l-17.4,0.1c0.3,1.1,1.1,2,2.1,2.8c1.1,0.8,2.3,1.1,3.5,1.1c1.7,0,3.1-0.6,4.5-1.9
		c1.6,1.7,3,3,4.1,4.1c-2.4,2.3-5.2,3.5-8.5,3.5c-3.3,0-6.2-1.2-8.6-3.6s-3.6-5.2-3.6-8.6c0-3.4,1.2-6.2,3.6-8.6s5.2-3.6,8.6-3.6
		c4.7,0,8,2,10.1,5.9c1.1,2,1.6,4.3,1.6,6.9C111.3,141.1,111.3,141.7,111.3,142.4z M105.2,137.3c-1.1-2.3-3-3.5-5.7-3.5
		c-2.6,0-4.5,1.2-5.7,3.5H105.2z"/>
	<path class="st0" d="M129,134h-6v17.8h-6.5v-25.7c0-2.7,0.9-4.9,2.8-6.6c1.5-1.4,3.2-2.2,5.1-2.2h4.5v6.7h-3.5
		c-1.4-0.1-2.2,0.4-2.4,1.5v1.8h6V134z"/>
	<path class="st0" d="M140.4,121.8c0,0.9-0.3,1.7-1,2.4c-0.7,0.7-1.4,1-2.4,1c-0.9,0-1.7-0.3-2.4-1c-0.7-0.7-1-1.4-1-2.4
		c0-0.9,0.3-1.7,1-2.4c0.7-0.7,1.4-1,2.4-1c0.9,0,1.7,0.3,2.4,1C140,120.1,140.4,120.9,140.4,121.8z M140.3,151.8h-6.5V128h6.5
		V151.8z"/>
	<path class="st0" d="M170.1,151.8h-6.4l-0.1-11.8c0-1.6-0.6-3-1.7-4.1c-1.1-1.1-2.5-1.7-4.1-1.7c-1.5,0-2.8,0.5-3.9,1.5
		c-1.1,1-1.7,2.2-1.9,3.7l-0.1,12.5h-6.5v-12c0-3.4,1.3-6.2,3.7-8.6c2.4-2.4,5.3-3.5,8.6-3.5c3.4,0,6.3,1.2,8.7,3.6
		c2.4,2.4,3.6,5.3,3.6,8.7V151.8z"/>
	<path class="st0" d="M198.5,142.4l-17.4,0.1c0.3,1.1,1.1,2,2.1,2.8c1.1,0.8,2.3,1.1,3.5,1.1c1.7,0,3.1-0.6,4.5-1.9
		c1.6,1.7,3,3,4.1,4.1c-2.4,2.3-5.2,3.5-8.5,3.5c-3.3,0-6.2-1.2-8.6-3.6s-3.6-5.2-3.6-8.6c0-3.4,1.2-6.2,3.6-8.6s5.2-3.6,8.6-3.6
		c4.7,0,8,2,10.1,5.9c1.1,2,1.6,4.3,1.6,6.9C198.5,141.1,198.5,141.7,198.5,142.4z M192.5,137.3c-1.1-2.3-3-3.5-5.7-3.5
		c-2.6,0-4.5,1.2-5.7,3.5H192.5z"/>
	<path class="st0" d="M227,117.4v22.9c-0.1,3.3-1.4,6-3.7,8.3c-2.3,2.3-5.2,3.4-8.5,3.4c-3.3,0-6.2-1.2-8.6-3.6s-3.6-5.2-3.6-8.6
		c0-3.3,1.2-6.2,3.6-8.6s5.2-3.6,8.6-3.6c2,0,3.9,0.5,5.7,1.4v-11.8H227z M220.6,139.9c0-1.6-0.6-2.9-1.7-4
		c-1.1-1.1-2.5-1.7-4.1-1.7c-1.6,0-2.9,0.6-4,1.7c-1.1,1.1-1.7,2.5-1.7,4c0,1.6,0.6,3,1.7,4.1c1.1,1.1,2.5,1.7,4,1.7
		c1.6,0,3-0.6,4.1-1.7C220,142.9,220.6,141.5,220.6,139.9z"/>
</g>
<linearGradient id="SVGID_1_" gradientUnits="userSpaceOnUse" x1="127.0355" y1="18.2872" x2="191.1007" y2="64.4412">
	<stop  offset="0.1419" style="stop-color:#29A99F"/>
	<stop  offset="0.1614" style="stop-color:#29AEA2"/>
	<stop  offset="0.2951" style="stop-color:#2CCAB5"/>
	<stop  offset="0.4115" style="stop-color:#2DDCC0"/>
	<stop  offset="0.4968" style="stop-color:#2EE2C4"/>
	<stop  offset="0.5764" style="stop-color:#2EE9C4"/>
	<stop  offset="0.8156" style="stop-color:#2EF9C4"/>
	<stop  offset="0.9998" style="stop-color:#2EFFC4"/>
</linearGradient>
<path class="st1" d="M102.7,40.8c0.1-8.8,2.7-16.7,7.6-23.5c0,0,2.8-3.7,4.5-5.4c8-8,17.7-12,29.1-12c10.9,0,21.3,4.2,29,11.9
	c8.2,8.1,12.3,17.9,12.3,29.5v30c0,6-4.9,10.8-10.8,10.8h0c-6,0-10.8-4.8-10.8-10.8l-0.1-30c0-5.5-1.9-10.1-5.6-13.9
	c-3.6-3.7-8.7-5.8-13.9-5.8c-5,0-9.4,1.7-13.1,5c-3.7,3.3-5.8,7.5-6.4,12.4L102.7,40.8z"/>
<linearGradient id="SVGID_2_" gradientUnits="userSpaceOnUse" x1="56.5799" y1="41.986" x2="113.8945" y2="96.9064">
	<stop  offset="1.860119e-04" style="stop-color:#2EFFC4"/>
	<stop  offset="0.1462" style="stop-color:#2EF9C4"/>
	<stop  offset="0.3358" style="stop-color:#2EE9C4"/>
	<stop  offset="0.3989" style="stop-color:#2EE2C4"/>
	<stop  offset="0.4939" style="stop-color:#2DDCC0"/>
	<stop  offset="0.6235" style="stop-color:#2CCAB5"/>
	<stop  offset="0.7724" style="stop-color:#29AEA2"/>
	<stop  offset="0.7941" style="stop-color:#29A99F"/>
</linearGradient>
<path class="st2" d="M124.4,58.7c-0.1,8.8-2.7,16.7-7.6,23.5h0c-1.4,1.9-2.9,3.7-4.6,5.4c-8,8-17.7,12-29.1,12
	c-10.9,0-21.3-4.2-29-11.9c-8.2-8.1-12.3-17.9-12.3-29.5v-30c0-6,4.9-10.8,10.8-10.8h0c6,0,10.8,4.8,10.8,10.8l0.1,30
	c0,5.5,1.9,10.1,5.6,13.9c3.6,3.7,8.7,5.8,13.9,5.8c5,0,9.4-1.7,13.1-5c3.7-3.3,5.8-7.5,6.4-12.4L124.4,58.7z"/>
<linearGradient id="SVGID_3_" gradientUnits="userSpaceOnUse" x1="70.1638" y1="49.7851" x2="156.7123" y2="49.7851">
	<stop  offset="1.409557e-02" style="stop-color:#2EFFC4"/>
	<stop  offset="0.5073" style="stop-color:#2EE2C4"/>
	<stop  offset="0.5852" style="stop-color:#2EE9C4"/>
	<stop  offset="0.8194" style="stop-color:#2EF9C4"/>
	<stop  offset="0.9998" style="stop-color:#2EFFC4"/>
</linearGradient>
<path class="st3" d="M143.9,0c-11.4,0-21.1,4-29.1,12c-1.7,1.7-4.5,5.4-4.5,5.4c-5,6.8-7.5,14.6-7.6,23.5l-0.1,19.7c0,0,0,0,0,0
	c0.3,20.9-15.8,32.1-31.2,36.7c-0.5,0.2-0.9,0.3-1.1,0.3c4,1.3,8.3,2,12.8,2c11.4,0,21.1-4,29.1-12c1.7-1.7,3.2-3.5,4.6-5.4h0
	c5-6.8,7.5-14.6,7.6-23.5l0-19.7C124,18.1,140.2,6.9,155.6,2.3c0.5-0.2,0.8-0.3,1.1-0.3C152.7,0.7,148.5,0,143.9,0z"/>
</svg>
