<?xml version="1.0" encoding="utf-8"?>
<!-- Generator: Adobe Illustrator 23.0.0, SVG Export Plug-In . SVG Version: 6.00 Build 0)  -->
<svg version="1.1" id="Layer_1" xmlns="http://www.w3.org/2000/svg" xmlns:xlink="http://www.w3.org/1999/xlink" x="0px" y="0px"
	 viewBox="0 0 325.6 193.4" style="enable-background:new 0 0 325.6 193.4;" xml:space="preserve">
<style type="text/css">
	.st0{enable-background:new    ;}
	.st1{fill:#727577;}
	.st2{fill:url(#SVGID_1_);}
	.st3{fill:url(#SVGID_2_);}
	.st4{fill:#1DF2C9;}
</style>
<g class="st0">
	<path class="st1" d="M34.8,176.2c0,4.7-1.8,8.8-5.1,12.1c-3.4,3.4-7.5,5-12.2,5c-4.8,0-8.9-1.7-12.3-5.1C1.7,184.9,0,180.8,0,176
		v-17.2h9.1L9.2,176c0,2.3,0.8,4.3,2.4,5.9c1.6,1.6,3.5,2.4,5.8,2.4c2.1,0,4-0.7,5.5-2.1c1.6-1.4,2.5-3.1,2.7-5.2l0.1-18.1h9.1
		V176.2z"/>
	<path class="st1" d="M77.4,192.9h-9.2L68.1,176c0-2.3-0.8-4.3-2.4-5.9s-3.6-2.4-5.9-2.4c-2.1,0-4,0.7-5.5,2.1
		c-1.6,1.4-2.5,3.2-2.7,5.3l-0.1,17.9h-9.3v-17.2c0-4.8,1.8-8.9,5.3-12.3c3.5-3.4,7.6-5.1,12.4-5.1c4.9,0,9,1.7,12.5,5.1
		c3.4,3.4,5.1,7.6,5.1,12.5V192.9z"/>
	<path class="st1" d="M118.9,143.5v32.9c-0.2,4.7-2,8.7-5.3,11.9c-3.4,3.3-7.4,4.9-12.1,4.9c-4.8,0-8.9-1.7-12.3-5.1
		c-3.4-3.4-5.1-7.5-5.1-12.4c0-4.8,1.7-8.9,5.1-12.3c3.4-3.4,7.5-5.1,12.3-5.1c2.9,0,5.6,0.7,8.1,2v-16.9H118.9z M109.7,175.8
		c0-2.3-0.8-4.2-2.4-5.8c-1.6-1.6-3.6-2.4-5.9-2.4c-2.3,0-4.2,0.8-5.8,2.4c-1.6,1.6-2.4,3.5-2.4,5.8c0,2.3,0.8,4.3,2.4,5.9
		c1.6,1.6,3.5,2.4,5.8,2.4c2.3,0,4.3-0.8,5.9-2.4C108.9,180.1,109.7,178.1,109.7,175.8z"/>
	<path class="st1" d="M159.7,179.4l-24.9,0.1c0.5,1.6,1.5,2.9,3.1,4s3.2,1.6,5.1,1.6c2.4,0,4.5-0.9,6.4-2.7c2.3,2.4,4.3,4.3,5.8,5.8
		c-3.4,3.4-7.5,5-12.2,5c-4.8,0-8.9-1.7-12.3-5.1c-3.4-3.4-5.1-7.5-5.1-12.3c0-4.8,1.7-9,5.1-12.4c3.4-3.4,7.5-5.1,12.3-5.1
		c6.7,0,11.5,2.8,14.5,8.4c1.5,2.9,2.3,6.2,2.3,9.8C159.7,177.5,159.7,178.4,159.7,179.4z M151,172c-1.6-3.4-4.3-5-8.1-5
		c-3.7,0-6.5,1.7-8.1,5H151z"/>
	<path class="st1" d="M185.1,167.4h-8.6v25.5h-9.4v-36.8c0-3.9,1.3-7.1,4-9.5c2.2-2.1,4.7-3.1,7.3-3.1h6.5v9.5h-5
		c-2.1-0.1-3.2,0.6-3.4,2.2v2.6h8.6V167.4z"/>
	<path class="st1" d="M201.4,149.8c0,1.3-0.5,2.5-1.4,3.4c-0.9,0.9-2.1,1.4-3.4,1.4s-2.5-0.5-3.4-1.4c-0.9-0.9-1.4-2.1-1.4-3.4
		c0-1.3,0.5-2.5,1.4-3.4c0.9-0.9,2.1-1.4,3.4-1.4s2.5,0.5,3.4,1.4C200.9,147.4,201.4,148.5,201.4,149.8z M201.3,192.9h-9.4v-34.2
		h9.4V192.9z"/>
	<path class="st1" d="M244,192.9h-9.2l-0.1-16.9c0-2.3-0.8-4.3-2.4-5.9s-3.6-2.4-5.9-2.4c-2.1,0-4,0.7-5.5,2.1
		c-1.6,1.4-2.5,3.2-2.7,5.3l-0.1,17.9h-9.3v-17.2c0-4.8,1.8-8.9,5.3-12.3c3.5-3.4,7.6-5.1,12.4-5.1c4.9,0,9,1.7,12.5,5.1
		c3.4,3.4,5.1,7.6,5.1,12.5V192.9z"/>
	<path class="st1" d="M284.8,179.4l-24.9,0.1c0.5,1.6,1.5,2.9,3.1,4s3.2,1.6,5.1,1.6c2.4,0,4.5-0.9,6.4-2.7c2.3,2.4,4.3,4.3,5.8,5.8
		c-3.4,3.4-7.5,5-12.2,5c-4.8,0-8.9-1.7-12.3-5.1c-3.4-3.4-5.1-7.5-5.1-12.3c0-4.8,1.7-9,5.1-12.4c3.4-3.4,7.5-5.1,12.3-5.1
		c6.7,0,11.5,2.8,14.5,8.4c1.5,2.9,2.3,6.2,2.3,9.8C284.9,177.5,284.8,178.4,284.8,179.4z M276.1,172c-1.6-3.4-4.3-5-8.1-5
		c-3.7,0-6.5,1.7-8.1,5H276.1z"/>
	<path class="st1" d="M325.6,143.5v32.9c-0.2,4.7-2,8.7-5.3,11.9c-3.4,3.3-7.4,4.9-12.1,4.9c-4.8,0-8.9-1.7-12.3-5.1
		c-3.4-3.4-5.1-7.5-5.1-12.4c0-4.8,1.7-8.9,5.1-12.3c3.4-3.4,7.5-5.1,12.3-5.1c2.9,0,5.6,0.7,8.1,2v-16.9H325.6z M316.5,175.8
		c0-2.3-0.8-4.2-2.4-5.8c-1.6-1.6-3.6-2.4-5.9-2.4c-2.3,0-4.2,0.8-5.8,2.4c-1.6,1.6-2.4,3.5-2.4,5.8c0,2.3,0.8,4.3,2.4,5.9
		c1.6,1.6,3.5,2.4,5.8,2.4c2.3,0,4.3-0.8,5.9-2.4C315.7,180.1,316.5,178.1,316.5,175.8z"/>
</g>
<linearGradient id="SVGID_1_" gradientUnits="userSpaceOnUse" x1="29.9482" y1="205.2388" x2="178.509" y2="80.135" gradientTransform="matrix(1 0 0 -1 0 207.8898)">
	<stop  offset="0" style="stop-color:#00FFE4"/>
	<stop  offset="1" style="stop-color:#00B3A1"/>
</linearGradient>
<path class="st2" d="M148.1,74.1c0,5.4-5.4,12.9-15.6,12.9c-9.3,0-14-7.8-14-13.2c0-2.1,0-25,0-31.4s-7-14.5-15-14.5S89,36,89,43
	s0,32.2,0,32.2c0,14,10.7,32.7,29.6,39.1c6.3-2.8,16.2-8.7,22.5-18.2c6.2-9.3,7.1-16.5,7.1-20.9L148.1,74.1z"/>
<linearGradient id="SVGID_2_" gradientUnits="userSpaceOnUse" x1="299.6056" y1="91.5815" x2="177.4339" y2="193.2284" gradientTransform="matrix(1 0 0 -1 0 207.8898)">
	<stop  offset="0" style="stop-color:#00FFE4"/>
	<stop  offset="1" style="stop-color:#00B3A1"/>
</linearGradient>
<path class="st3" d="M177.6,42.4c0-5.4,5.4-12.9,15.6-12.9c8.7,0,14,7.2,14,13.5c0,2.1,0,24.7,0,31.1s7,14.5,15,14.5
	c8.1,0,14.5-8.1,14.5-15c0-7,0-32.2,0-32.2c0-14-10.7-32.7-29.6-39.1c-6.3,2.8-16.2,8.7-22.5,18.2c-6.2,9.3-7.1,16.5-7.1,20.9
	L177.6,42.4z"/>
<path class="st4" d="M191.6,0c-27.4,0-43.5,20.5-43.5,41.4c0,0,0.1,33.3,0.1,33.9c-1,10.8-4.1,16.8-8.5,22.7s-16.9,14.3-28.8,12.8
	c7.7,4.9,17.6,6,23.2,5.8c27.4-1.1,44.3-23.2,43.5-40.5c0,0-0.1-34.2-0.1-34.8c0-4.4,0.9-11.6,7.1-20.9c6.3-9.5,20.4-15.8,28.6-15.5
	C204.7,0.4,197.1,0,191.6,0z"/>
</svg>
